<?xml version="1.0" standalone="no"?>
<!DOCTYPE svg PUBLIC "-//W3C//DTD SVG 20010904//EN"
 "http://www.w3.org/TR/2001/REC-SVG-20010904/DTD/svg10.dtd">
<svg version="1.0" xmlns="http://www.w3.org/2000/svg"
 width="600.000000pt" height="600.000000pt" viewBox="0 0 600.000000 600.000000"
 preserveAspectRatio="xMidYMid meet">

<g transform="translate(0.000000,600.000000) scale(0.100000,-0.100000)"
fill="midnightblue" stroke="none">

<path d="M2589 5395 c-318 -51 -538 -162 -754 -379 -198 -199 -332 -452 -414
-781 -11 -44 -36 -153 -55 -242 -46 -210 -80 -311 -128 -379 -25 -37 -37 -62
-33 -74 7 -22 110 -118 142 -133 22 -10 23 -15 23 -118 0 -214 34 -429 84
-528 26 -50 67 -91 93 -91 7 0 16 -6 19 -14 7 -18 -39 -118 -81 -177 -19 -27
-35 -56 -35 -64 0 -30 121 -86 234 -109 l60 -12 23 -89 c12 -50 23 -97 23
-106 0 -21 -335 -113 -747 -205 -158 -35 -301 -69 -316 -76 -25 -10 -26 -13
-12 -21 33 -18 269 11 513 64 333 71 525 110 529 106 2 -2 -26 -42 -61 -89
-159 -211 -236 -351 -236 -428 l0 -45 135 -123 135 -124 -30 -36 c-158 -194
-243 -303 -268 -346 -35 -58 -50 -106 -33 -106 16 0 210 189 312 304 103 115
126 155 108 188 -24 46 -82 108 -184 198 l-104 93 21 41 c24 48 300 466 308
466 3 0 21 -28 40 -62 33 -60 130 -210 178 -273 l22 -30 -46 -108 c-104 -246
-131 -466 -93 -748 11 -79 22 -109 36 -95 4 4 11 137 14 294 5 261 8 293 28
355 12 38 25 67 28 64 2 -3 13 -56 24 -118 23 -134 81 -314 144 -445 l46 -95
37 3 c36 3 39 7 117 135 44 72 103 161 131 197 l51 66 56 -72 c31 -40 57 -82
57 -94 0 -21 -22 -66 -106 -222 l-29 -53 32 -29 c50 -45 129 -65 263 -65 120
0 169 11 214 46 49 39 35 94 -64 245 -28 42 -50 87 -50 99 0 13 15 41 33 62
17 21 39 49 47 61 14 21 18 17 100 -114 102 -162 164 -244 186 -244 50 0 150
174 214 370 36 109 67 258 72 345 l3 40 38 -66 c78 -137 104 -255 116 -519 9
-180 14 -220 31 -220 28 0 32 293 6 440 -27 151 -93 328 -172 461 l-27 46 30
44 c16 24 47 75 68 113 l38 69 51 -58 c107 -122 308 -362 333 -398 l26 -37
-91 -94 c-109 -112 -152 -176 -152 -224 0 -30 11 -45 78 -112 77 -77 318 -274
366 -300 36 -19 42 -7 18 32 -18 28 -357 346 -394 369 -22 14 12 57 134 173
131 123 135 132 93 204 -30 53 -145 202 -274 357 -55 66 -101 123 -101 126 0
6 361 -87 804 -207 270 -73 434 -104 472 -90 16 6 17 9 4 16 -18 10 -532 163
-975 291 -176 51 -322 94 -324 96 -5 3 2 26 41 131 l20 52 61 -5 c65 -7 222
16 240 34 6 6 0 33 -17 75 -29 73 -86 279 -86 312 0 15 10 26 30 34 97 40 179
233 197 463 3 44 11 80 17 81 127 31 158 41 203 71 29 19 65 53 79 75 l26 39
-46 53 c-64 72 -124 196 -140 288 -7 41 -10 78 -7 81 3 4 40 2 81 -3 94 -12
276 -4 355 17 99 25 201 81 265 145 77 77 130 182 133 264 l2 59 -85 22 c-256
69 -636 295 -1210 720 -91 68 -198 144 -239 170 -151 98 -346 173 -556 216
-141 28 -481 36 -616 14z m546 -126 c152 -31 275 -75 440 -159 199 -100 353
-204 628 -422 174 -138 501 -341 635 -393 23 -10 42 -23 42 -31 0 -8 -49 -39
-110 -69 -60 -30 -110 -60 -110 -65 0 -19 65 -9 190 29 69 21 127 37 129 35 3
-3 -20 -29 -49 -59 -47 -47 -51 -55 -32 -55 12 0 61 16 109 35 121 49 140 45
87 -18 -32 -38 -19 -45 37 -23 52 21 52 21 35 -12 -21 -41 -106 -117 -166
-147 -99 -50 -190 -68 -350 -68 -166 0 -285 20 -460 80 -160 54 -157 44 -38
122 110 73 154 111 125 111 -9 0 -95 -32 -191 -70 -187 -75 -266 -95 -266 -66
0 22 -23 20 -45 -4 -14 -15 -31 -20 -71 -20 -47 0 -55 3 -74 30 -12 17 -30 30
-40 30 -12 0 -21 -10 -25 -30 l-7 -30 -86 0 c-220 1 -725 72 -754 107 -11 13
-4 14 57 8 39 -4 78 -9 89 -12 11 -3 16 -1 12 5 -3 6 -77 34 -164 62 -188 62
-237 89 -406 214 -118 89 -156 110 -156 87 0 -13 78 -88 145 -140 52 -40 60
-51 63 -83 2 -21 -1 -38 -5 -38 -14 0 -131 48 -197 82 -94 48 -224 132 -306
197 -41 33 -81 61 -88 61 -28 0 36 -88 142 -195 l109 -110 -17 -94 c-9 -52
-22 -101 -28 -108 -18 -22 -131 -12 -308 28 -147 34 -160 39 -160 57 0 33 89
280 130 362 90 179 185 314 314 449 147 152 250 217 432 274 277 87 517 105
759 56z m-533 -1109 c8 0 7 -5 -3 -15 -21 -21 -53 -8 -97 38 l-34 35 61 -29
c33 -16 66 -29 73 -29z m-401 10 l84 -41 -52 5 c-37 4 -55 1 -63 -9 -10 -12
-1 -27 48 -77 l59 -63 -23 -69 c-36 -106 -25 -109 121 -31 l102 55 42 -55 c23
-30 44 -55 47 -55 3 0 21 12 40 26 19 15 36 25 38 23 2 -2 18 -33 35 -67 28
-56 35 -63 54 -58 73 21 71 22 102 -43 18 -39 35 -61 46 -61 21 0 159 182 159
209 0 18 -8 20 -67 23 -64 3 -67 4 -74 32 -5 17 -7 32 -5 34 3 2 53 -4 113
-13 59 -9 163 -19 229 -22 l122 -6 6 -45 c11 -79 11 -78 -40 -73 -25 2 -50 -1
-55 -6 -10 -10 86 -183 101 -183 5 0 32 19 61 42 l52 41 46 -18 c25 -10 58
-20 72 -22 25 -5 27 -2 34 46 l7 50 51 -25 51 -26 28 31 c31 35 32 35 99 -21
25 -21 50 -38 56 -38 6 0 18 19 25 42 l14 42 12 -95 c33 -266 112 -420 240
-465 35 -13 52 -24 52 -36 0 -54 -25 -185 -50 -260 -46 -138 -97 -204 -164
-215 -30 -5 -41 -1 -61 17 -14 13 -25 30 -25 39 0 40 -19 -12 -30 -84 -36
-237 -230 -732 -360 -920 -116 -167 -316 -313 -495 -360 -154 -41 -388 -26
-558 35 -178 65 -296 169 -445 393 -195 295 -303 590 -319 870 -3 64 -8 117
-10 117 -3 0 -18 -9 -33 -20 -150 -107 -280 118 -280 486 0 55 2 103 5 106 3
3 34 -1 68 -9 82 -20 153 -12 219 24 121 66 198 222 323 658 51 179 53 185 58
185 2 0 42 -18 88 -40z m341 -89 l27 -24 41 33 c22 18 43 31 44 29 2 -2 21
-32 41 -67 l37 -64 48 7 c46 6 48 6 54 -22 4 -15 14 -51 22 -80 l15 -52 54 -3
53 -3 -41 -57 c-23 -32 -45 -57 -49 -58 -4 0 -20 24 -35 53 -29 53 -32 54 -90
42 -31 -7 -32 -6 -62 59 -33 74 -45 79 -96 41 l-33 -26 -36 51 c-20 27 -41 50
-46 50 -6 0 -51 -21 -102 -46 -65 -32 -89 -41 -84 -29 3 9 9 35 12 56 6 36 3
44 -27 75 l-34 36 84 -8 84 -7 -8 69 -7 69 54 -50 c29 -28 65 -61 80 -74z
m-884 -81 c63 -11 156 -20 208 -20 52 0 94 -4 94 -8 0 -24 -33 -43 -105 -62
-116 -30 -235 -36 -314 -16 -36 9 -67 18 -69 20 -2 3 0 30 3 61 l8 57 31 -6
c17 -4 82 -16 144 -26z m1996 -73 l39 -49 48 48 48 48 14 -35 c8 -19 17 -42
20 -51 10 -27 22 -22 83 33 31 28 58 49 60 47 2 -3 -1 -20 -6 -39 -17 -57 -13
-69 26 -85 41 -17 39 -21 -19 -49 -28 -13 -43 -28 -45 -42 -5 -31 -12 -29 -68
17 -27 22 -52 40 -55 40 -4 0 -20 -15 -36 -33 l-30 -34 -57 29 c-63 32 -76 30
-76 -10 0 -15 -3 -37 -6 -49 l-6 -22 -49 20 c-28 10 -53 19 -58 19 -4 0 -29
-16 -55 -36 -26 -20 -48 -34 -50 -32 -5 7 -46 79 -46 81 0 2 17 1 39 -1 21 -2
41 1 45 6 3 5 2 43 -3 83 -6 41 -8 75 -6 77 2 2 27 -15 56 -38 28 -22 59 -40
67 -38 12 3 27 35 68 147 2 8 8 10 12 5 5 -5 25 -31 46 -57z m592 -93 l142
-45 4 -42 c3 -23 3 -44 1 -47 -8 -10 -182 33 -251 62 -69 29 -72 31 -53 45 28
19 26 30 -9 48 -38 20 -40 40 -2 30 15 -3 91 -26 168 -51z m-2325 14 c-10 -27
-138 -95 -246 -130 -76 -25 -234 -33 -254 -13 -8 8 -5 27 8 64 l18 53 159 3
c123 2 175 7 229 22 95 27 96 27 86 1z m-76 -186 c-48 -92 -123 -174 -187
-206 -96 -48 -217 -28 -332 54 l-46 34 35 36 36 37 112 6 c136 7 244 34 340
84 40 21 73 35 75 31 2 -4 -13 -38 -33 -76z m2362 12 c39 -18 99 -40 133 -48
34 -8 65 -18 68 -21 4 -3 12 -24 18 -46 l12 -39 -37 0 c-79 0 -227 61 -296
121 -29 26 -35 38 -35 71 l0 40 33 -22 c17 -12 64 -37 104 -56z m-62 -115 c82
-62 177 -101 256 -107 64 -4 71 -7 84 -32 8 -15 27 -42 42 -60 l27 -33 -28
-22 c-60 -48 -185 -68 -270 -43 -94 28 -170 147 -183 286 -7 73 -11 73 72 11z
m-2456 -1034 c7 -55 15 -112 18 -127 l5 -28 -53 16 c-30 9 -69 22 -86 30 l-33
13 19 33 c23 40 46 98 61 155 12 46 41 62 51 28 4 -11 12 -65 18 -120z m2359
-9 c7 -46 24 -125 38 -175 15 -51 24 -94 21 -98 -10 -10 -168 -6 -178 4 -16
16 72 353 91 353 12 0 19 -20 28 -84z m-1819 -1060 c65 -47 216 -131 306 -171
42 -18 78 -35 81 -38 3 -3 -64 -98 -149 -211 -141 -188 -156 -204 -169 -188
-82 96 -160 386 -144 534 7 66 16 108 23 108 3 0 26 -15 52 -34z m1306 -89
c-30 -196 -90 -390 -151 -495 l-27 -46 -35 40 c-37 42 -252 360 -252 372 0 4
26 13 58 20 78 18 262 110 347 175 39 29 72 49 73 45 2 -5 -4 -55 -13 -111z"/>
<path d="M2340 4617 c0 -18 49 -84 91 -124 106 -98 296 -206 464 -262 156 -52
388 -90 370 -61 -6 10 -48 23 -310 100 -77 23 -181 61 -231 85 -97 47 -242
153 -312 229 -43 45 -72 59 -72 33z"/>
<path d="M2261 3606 c-9 -10 4 -20 60 -45 39 -18 74 -30 76 -27 10 10 -11 28
-67 56 -47 24 -60 27 -69 16z"/>
<path d="M2575 3607 c-45 -18 -105 -57 -105 -68 0 -5 15 -2 33 7 41 22 172 30
221 14 22 -7 56 -34 90 -73 30 -34 58 -58 62 -55 10 11 -16 76 -43 109 -14 16
-44 39 -66 51 -49 25 -149 33 -192 15z"/>
<path d="M2944 3540 c19 -67 18 -136 -2 -195 l-20 -60 34 39 c64 73 67 162 8
217 l-27 24 7 -25z"/>
<path d="M2575 3522 l-30 -17 52 -3 c41 -2 51 -6 46 -18 -3 -8 2 -25 11 -39
13 -19 25 -25 54 -25 21 0 43 5 48 10 7 7 22 6 47 -5 50 -21 68 -19 32 4 -16
10 -43 33 -60 51 -16 17 -42 38 -57 46 -36 19 -106 17 -143 -4z"/>
<path d="M2313 3499 c-61 -19 -75 -31 -52 -45 13 -7 139 44 139 57 0 13 -17
11 -87 -12z"/>
<path d="M3398 3506 c-51 -19 -85 -42 -99 -68 -10 -19 -9 -20 7 -13 93 39 126
48 174 48 68 0 90 -10 162 -81 59 -58 76 -63 59 -19 -15 38 -70 96 -112 118
-51 26 -143 33 -191 15z"/>
<path d="M3225 3474 c-29 -31 -49 -111 -40 -162 3 -21 17 -51 30 -68 l24 -29
-5 80 c-5 61 -2 91 11 125 26 72 28 80 16 80 -7 0 -23 -11 -36 -26z"/>
<path d="M2448 3413 c62 -85 156 -140 224 -129 59 10 160 67 145 83 -4 3 -27
-3 -51 -15 -83 -42 -181 -22 -269 53 -50 43 -77 48 -49 8z"/>
<path d="M3415 3420 c-3 -5 -27 -16 -53 -24 l-47 -15 46 0 c38 -1 50 -6 63
-26 27 -42 102 -31 119 17 3 10 16 7 50 -9 26 -13 47 -19 47 -15 0 11 -50 57
-77 71 -27 14 -140 15 -148 1z"/>
<path d="M3796 3385 c-102 -42 -95 -63 10 -29 58 19 72 30 59 43 -6 6 -32 1
-69 -14z"/>
<path d="M3310 3341 c0 -31 70 -115 115 -138 41 -22 124 -19 172 6 42 21 106
71 100 77 -2 2 -35 -10 -73 -26 -38 -16 -80 -30 -94 -30 -48 0 -103 22 -144
59 -63 56 -76 65 -76 52z"/>
<path d="M3720 3312 c0 -13 128 -75 139 -67 22 13 10 23 -54 49 -69 28 -85 31
-85 18z"/>
<path d="M1791 3215 c-1 -43 -5 -54 -31 -77 -46 -40 -35 -109 27 -183 16 -17
34 -40 41 -51 10 -16 11 -12 6 26 -4 28 -16 55 -31 72 -40 43 -29 108 19 108
18 0 19 4 13 38 -4 20 -15 55 -25 77 l-18 40 -1 -50z"/>
<path d="M3991 3137 c-7 -10 -18 -38 -22 -64 -8 -41 -6 -49 12 -69 27 -29 18
-78 -19 -101 -15 -9 -29 -18 -30 -19 -2 -1 -7 -19 -12 -39 l-8 -37 22 21 c12
12 27 21 32 21 13 0 58 48 73 77 16 31 14 65 -6 93 -10 14 -20 49 -23 79 -4
48 -7 52 -19 38z"/>
<path d="M2790 3048 c-43 -68 -100 -195 -115 -253 -17 -64 -33 -265 -20 -253
4 3 19 55 34 115 15 59 41 147 57 196 22 70 31 86 44 81 8 -4 33 -8 55 -9 46
-1 85 -19 85 -40 0 -7 11 -22 25 -33 54 -43 145 -35 185 15 18 23 28 26 89 27
l69 2 6 -44 c13 -96 6 -192 -28 -357 -4 -21 1 -15 19 22 35 71 59 201 52 283
-7 79 -42 188 -69 215 -20 20 -20 20 -9 -2 34 -66 -11 -123 -54 -69 -30 37
-61 34 -79 -8 -29 -70 -105 -88 -157 -37 -16 16 -29 40 -29 53 0 51 -52 65
-88 23 -25 -29 -35 -31 -56 -9 -21 20 -20 32 4 77 25 45 7 50 -20 5z"/>
<path d="M2918 2743 c-9 -10 -39 -67 -68 -127 -41 -87 -64 -122 -116 -174 -35
-35 -64 -66 -64 -68 0 -2 15 -3 33 -2 l32 3 6 -125 c3 -69 11 -145 18 -169 16
-56 64 -105 118 -121 36 -11 46 -10 80 6 32 16 46 34 93 124 91 176 97 183
136 175 40 -7 43 3 9 35 -32 30 -39 58 -65 254 -11 87 -25 167 -31 177 -13 26
-36 24 -63 -6 -27 -29 -48 -25 -64 11 -14 28 -33 31 -54 7z m140 -139 l3 -51
-37 -6 c-28 -5 -40 -2 -50 11 -13 16 -13 16 -14 0 0 -19 -25 -23 -67 -12 -21
6 -21 8 -8 33 20 40 43 55 80 53 19 -2 37 4 45 13 25 30 45 13 48 -41z m-187
-440 c87 -26 129 -45 129 -59 0 -23 -60 -65 -91 -65 -52 0 -100 45 -119 111
-10 35 0 37 81 13z"/>
<path d="M2385 2124 c8 -45 66 -177 110 -253 98 -167 331 -283 510 -253 149
25 238 93 315 243 28 55 50 105 48 111 -2 6 -27 -20 -55 -58 -197 -266 -381
-306 -633 -139 -80 53 -131 116 -222 275 -34 61 -66 110 -71 110 -5 0 -6 -16
-2 -36z"/>
</g>
</svg>
